<?xml version="1.0" standalone="no"?><!DOCTYPE svg PUBLIC "-//W3C//DTD SVG 1.1//EN" "http://www.w3.org/Graphics/SVG/1.1/DTD/svg11.dtd"><svg xmlns:xlink="http://www.w3.org/1999/xlink" version="1.1" class="highcharts-root" style="font-family:frutigerltw02-45light;font-size:11px;font-weight:300;" xmlns="http://www.w3.org/2000/svg" width="600" viewBox="0 0 600 300" height="300"><desc>Created with Highcharts 5.0.0</desc><defs><clipPath id="highcharts-61"><rect x="0" y="0" width="462" height="120" fill="none"></rect></clipPath></defs><rect fill="#FFFFFF" class="highcharts-background" x="0" y="0" width="600" height="300" rx="0" ry="0"></rect><rect fill="none" class="highcharts-plot-background" x="128" y="58" width="462" height="120"></rect><g class="highcharts-grid highcharts-xaxis-grid "><path fill="none" class="highcharts-grid-line" d="M 150.5 58 L 150.5 178" opacity="1"></path><path fill="none" class="highcharts-grid-line" d="M 173.5 58 L 173.5 178" opacity="1"></path><path fill="none" class="highcharts-grid-line" d="M 196.5 58 L 196.5 178" opacity="1"></path><path fill="none" class="highcharts-grid-line" d="M 219.5 58 L 219.5 178" opacity="1"></path><path fill="none" class="highcharts-grid-line" d="M 243.5 58 L 243.5 178" opacity="1"></path><path fill="none" class="highcharts-grid-line" d="M 266.5 58 L 266.5 178" opacity="1"></path><path fill="none" class="highcharts-grid-line" d="M 289.5 58 L 289.5 178" opacity="1"></path><path fill="none" class="highcharts-grid-line" d="M 312.5 58 L 312.5 178" opacity="1"></path><path fill="none" class="highcharts-grid-line" d="M 335.5 58 L 335.5 178" opacity="1"></path><path fill="none" class="highcharts-grid-line" d="M 358.5 58 L 358.5 178" opacity="1"></path><path fill="none" class="highcharts-grid-line" d="M 381.5 58 L 381.5 178" opacity="1"></path><path fill="none" class="highcharts-grid-line" d="M 404.5 58 L 404.5 178" opacity="1"></path><path fill="none" class="highcharts-grid-line" d="M 427.5 58 L 427.5 178" opacity="1"></path><path fill="none" class="highcharts-grid-line" d="M 450.5 58 L 450.5 178" opacity="1"></path><path fill="none" class="highcharts-grid-line" d="M 474.5 58 L 474.5 178" opacity="1"></path><path fill="none" class="highcharts-grid-line" d="M 497.5 58 L 497.5 178" opacity="1"></path><path fill="none" class="highcharts-grid-line" d="M 520.5 58 L 520.5 178" opacity="1"></path><path fill="none" class="highcharts-grid-line" d="M 543.5 58 L 543.5 178" opacity="1"></path><path fill="none" class="highcharts-grid-line" d="M 566.5 58 L 566.5 178" opacity="1"></path><path fill="none" class="highcharts-grid-line" d="M 589.5 58 L 589.5 178" opacity="1"></path><path fill="none" class="highcharts-grid-line" d="M 127.5 58 L 127.5 178" opacity="1"></path></g><g class="highcharts-grid highcharts-yaxis-grid "><path fill="none" stroke="#e6e6e6" stroke-width="1" class="highcharts-grid-line" d="M 128 178.5 L 590 178.5" opacity="1"></path><path fill="none" stroke="#e6e6e6" stroke-width="1" class="highcharts-grid-line" d="M 128 118.5 L 590 118.5" opacity="1"></path><path fill="none" stroke="#e6e6e6" stroke-width="1" class="highcharts-grid-line" d="M 128 57.5 L 590 57.5" opacity="1"></path></g><g class="highcharts-grid highcharts-yaxis-grid "><path fill="none" stroke="#e6e6e6" stroke-width="1" class="highcharts-grid-line" d="M 128 178.5 L 590 178.5" opacity="1"></path><path fill="none" stroke="#e6e6e6" stroke-width="1" class="highcharts-grid-line" d="M 128 138.5 L 590 138.5" opacity="1"></path><path fill="none" stroke="#e6e6e6" stroke-width="1" class="highcharts-grid-line" d="M 128 98.5 L 590 98.5" opacity="1"></path><path fill="none" stroke="#e6e6e6" stroke-width="1" class="highcharts-grid-line" d="M 128 57.5 L 590 57.5" opacity="1"></path></g><rect fill="none" class="highcharts-plot-border" x="128" y="58" width="462" height="120"></rect><g class="highcharts-axis highcharts-xaxis "><path fill="none" class="highcharts-tick" stroke="#e0e0e0" stroke-width="1" d="M 150.5 178 L 150.5 185" opacity="1"></path><path fill="none" class="highcharts-tick" stroke="#e0e0e0" stroke-width="1" d="M 173.5 178 L 173.5 185" opacity="1"></path><path fill="none" class="highcharts-tick" stroke="#e0e0e0" stroke-width="1" d="M 196.5 178 L 196.5 185" opacity="1"></path><path fill="none" class="highcharts-tick" stroke="#e0e0e0" stroke-width="1" d="M 219.5 178 L 219.5 185" opacity="1"></path><path fill="none" class="highcharts-tick" stroke="#e0e0e0" stroke-width="1" d="M 243.5 178 L 243.5 185" opacity="1"></path><path fill="none" class="highcharts-tick" stroke="#e0e0e0" stroke-width="1" d="M 266.5 178 L 266.5 185" opacity="1"></path><path fill="none" class="highcharts-tick" stroke="#e0e0e0" stroke-width="1" d="M 289.5 178 L 289.5 185" opacity="1"></path><path fill="none" class="highcharts-tick" stroke="#e0e0e0" stroke-width="1" d="M 312.5 178 L 312.5 185" opacity="1"></path><path fill="none" class="highcharts-tick" stroke="#e0e0e0" stroke-width="1" d="M 335.5 178 L 335.5 185" opacity="1"></path><path fill="none" class="highcharts-tick" stroke="#e0e0e0" stroke-width="1" d="M 358.5 178 L 358.5 185" opacity="1"></path><path fill="none" class="highcharts-tick" stroke="#e0e0e0" stroke-width="1" d="M 381.5 178 L 381.5 185" opacity="1"></path><path fill="none" class="highcharts-tick" stroke="#e0e0e0" stroke-width="1" d="M 404.5 178 L 404.5 185" opacity="1"></path><path fill="none" class="highcharts-tick" stroke="#e0e0e0" stroke-width="1" d="M 427.5 178 L 427.5 185" opacity="1"></path><path fill="none" class="highcharts-tick" stroke="#e0e0e0" stroke-width="1" d="M 450.5 178 L 450.5 185" opacity="1"></path><path fill="none" class="highcharts-tick" stroke="#e0e0e0" stroke-width="1" d="M 474.5 178 L 474.5 185" opacity="1"></path><path fill="none" class="highcharts-tick" stroke="#e0e0e0" stroke-width="1" d="M 497.5 178 L 497.5 185" opacity="1"></path><path fill="none" class="highcharts-tick" stroke="#e0e0e0" stroke-width="1" d="M 520.5 178 L 520.5 185" opacity="1"></path><path fill="none" class="highcharts-tick" stroke="#e0e0e0" stroke-width="1" d="M 543.5 178 L 543.5 185" opacity="1"></path><path fill="none" class="highcharts-tick" stroke="#e0e0e0" stroke-width="1" d="M 566.5 178 L 566.5 185" opacity="1"></path><path fill="none" class="highcharts-tick" stroke="#e0e0e0" stroke-width="1" d="M 590.5 178 L 590.5 185" opacity="1"></path><path fill="none" class="highcharts-tick" stroke="#e0e0e0" stroke-width="1" d="M 127.5 178 L 127.5 185" opacity="1"></path><path fill="none" class="highcharts-axis-line" stroke="#e0e0e0" stroke-width="1" d="M 128 178.5 L 590 178.5"></path></g><g class="highcharts-axis highcharts-yaxis "><text x="82.21875" text-anchor="middle" transform="translate(0,0) rotate(270 82.21875 118)" class="highcharts-axis-title" style="color:#666666;fill:#666666;" y="118">ha</text><path fill="none" class="highcharts-axis-line" d="M 128 58 L 128 178"></path></g><g class="highcharts-axis highcharts-yaxis "><text x="21.671875" text-anchor="middle" transform="translate(0,0) rotate(270 21.671875 118)" class="highcharts-axis-title" style="color:#666666;fill:#666666;" y="118">tonnes</text><path fill="none" class="highcharts-axis-line" d="M 70 58 L 70 178"></path></g><g class="highcharts-series-group"><g class="highcharts-series highcharts-series-0 highcharts-line-series highcharts-color-0 " transform="translate(128,58) scale(1 1)" width="120" height="462" clip-path="url(#highcharts-61)"><path fill="none" d="M 11.55 72.837504 L 34.65 69.567528 L 57.75 61.050551999999996 L 80.85 54.78654 L 103.95 70.11385200000001 L 127.05 55.473444 L 150.15 44.5029 L 173.25 36.707532 L 196.35 25.499123999999995 L 219.45 63.223175999999995 L 242.55 38.241984 L 265.65 48.822323999999995 L 288.75 38.152608 L 311.85 27.407315999999994 L 334.95 23.893416000000002 L 358.05 31.56179999999999 L 381.15 13.272312 L 404.25 3.490307999999999 L 427.35 6.924359999999993 L 450.45 6.6319680000000005" class="highcharts-graph" stroke="#1976D2" stroke-width="1" stroke-linejoin="round" stroke-linecap="round"></path></g><g class="highcharts-markers highcharts-series-0 highcharts-line-series highcharts-color-0 " transform="translate(128,58) scale(1 1)" width="120" height="462" clip-path="none"><path fill="#1976D2" d="M 450 3.6319680000000005 C 453.996 3.6319680000000005 453.996 9.631968 450 9.631968 C 446.004 9.631968 446.004 3.6319680000000005 450 3.6319680000000005 Z" stroke="#ffffff" stroke-width="1" class="highcharts-point highcharts-color-0"></path><path fill="#1976D2" d="M 427 3.924359999999993 C 430.996 3.924359999999993 430.996 9.924359999999993 427 9.924359999999993 C 423.004 9.924359999999993 423.004 3.924359999999993 427 3.924359999999993 Z" stroke="#ffffff" stroke-width="1" class="highcharts-point highcharts-color-0"></path><path fill="#1976D2" d="M 404 0.49030799999999886 C 407.996 0.49030799999999886 407.996 6.490307999999999 404 6.490307999999999 C 400.004 6.490307999999999 400.004 0.49030799999999886 404 0.49030799999999886 Z" stroke="#ffffff" stroke-width="1" class="highcharts-point highcharts-color-0"></path><path fill="#1976D2" d="M 381 10.272312 C 384.996 10.272312 384.996 16.272312 381 16.272312 C 377.004 16.272312 377.004 10.272312 381 10.272312 Z" stroke="#ffffff" stroke-width="1" class="highcharts-point highcharts-color-0"></path><path fill="#1976D2" d="M 358 28.56179999999999 C 361.996 28.56179999999999 361.996 34.56179999999999 358 34.56179999999999 C 354.004 34.56179999999999 354.004 28.56179999999999 358 28.56179999999999 Z" stroke="#ffffff" stroke-width="1" class="highcharts-point highcharts-color-0"></path><path fill="#1976D2" d="M 334 20.893416000000002 C 337.996 20.893416000000002 337.996 26.893416000000002 334 26.893416000000002 C 330.004 26.893416000000002 330.004 20.893416000000002 334 20.893416000000002 Z" stroke="#ffffff" stroke-width="1" class="highcharts-point highcharts-color-0"></path><path fill="#1976D2" d="M 311 24.407315999999994 C 314.996 24.407315999999994 314.996 30.407315999999994 311 30.407315999999994 C 307.004 30.407315999999994 307.004 24.407315999999994 311 24.407315999999994 Z" stroke="#ffffff" stroke-width="1" class="highcharts-point highcharts-color-0"></path><path fill="#1976D2" d="M 288 35.152608 C 291.996 35.152608 291.996 41.152608 288 41.152608 C 284.004 41.152608 284.004 35.152608 288 35.152608 Z" stroke="#ffffff" stroke-width="1" class="highcharts-point highcharts-color-0"></path><path fill="#1976D2" d="M 265 45.822323999999995 C 268.996 45.822323999999995 268.996 51.822323999999995 265 51.822323999999995 C 261.004 51.822323999999995 261.004 45.822323999999995 265 45.822323999999995 Z" stroke="#ffffff" stroke-width="1" class="highcharts-point highcharts-color-0"></path><path fill="#1976D2" d="M 242 35.241984 C 245.996 35.241984 245.996 41.241984 242 41.241984 C 238.004 41.241984 238.004 35.241984 242 35.241984 Z" stroke="#ffffff" stroke-width="1" class="highcharts-point highcharts-color-0"></path><path fill="#1976D2" d="M 219 60.223175999999995 C 222.996 60.223175999999995 222.996 66.223176 219 66.223176 C 215.004 66.223176 215.004 60.223175999999995 219 60.223175999999995 Z" stroke="#ffffff" stroke-width="1" class="highcharts-point highcharts-color-0"></path><path fill="#1976D2" d="M 196 22.499123999999995 C 199.996 22.499123999999995 199.996 28.499123999999995 196 28.499123999999995 C 192.004 28.499123999999995 192.004 22.499123999999995 196 22.499123999999995 Z" stroke="#ffffff" stroke-width="1" class="highcharts-point highcharts-color-0"></path><path fill="#1976D2" d="M 173 33.707532 C 176.996 33.707532 176.996 39.707532 173 39.707532 C 169.004 39.707532 169.004 33.707532 173 33.707532 Z" stroke="#ffffff" stroke-width="1" class="highcharts-point highcharts-color-0"></path><path fill="#1976D2" d="M 150 41.5029 C 153.996 41.5029 153.996 47.5029 150 47.5029 C 146.004 47.5029 146.004 41.5029 150 41.5029 Z" stroke="#ffffff" stroke-width="1" class="highcharts-point highcharts-color-0"></path><path fill="#1976D2" d="M 127 52.473444 C 130.996 52.473444 130.996 58.473444 127 58.473444 C 123.004 58.473444 123.004 52.473444 127 52.473444 Z" stroke="#ffffff" stroke-width="1" class="highcharts-point highcharts-color-0"></path><path fill="#1976D2" d="M 103 67.11385200000001 C 106.996 67.11385200000001 106.996 73.11385200000001 103 73.11385200000001 C 99.004 73.11385200000001 99.004 67.11385200000001 103 67.11385200000001 Z" stroke="#ffffff" stroke-width="1" class="highcharts-point highcharts-color-0"></path><path fill="#1976D2" d="M 80 51.78654 C 83.996 51.78654 83.996 57.78654 80 57.78654 C 76.004 57.78654 76.004 51.78654 80 51.78654 Z" stroke="#ffffff" stroke-width="1" class="highcharts-point highcharts-color-0"></path><path fill="#1976D2" d="M 57 58.050551999999996 C 60.996 58.050551999999996 60.996 64.050552 57 64.050552 C 53.004 64.050552 53.004 58.050551999999996 57 58.050551999999996 Z" stroke="#ffffff" stroke-width="1" class="highcharts-point highcharts-color-0"></path><path fill="#1976D2" d="M 34 66.567528 C 37.996 66.567528 37.996 72.567528 34 72.567528 C 30.004 72.567528 30.004 66.567528 34 66.567528 Z" stroke="#ffffff" stroke-width="1" class="highcharts-point highcharts-color-0"></path><path fill="#1976D2" d="M 11 69.837504 C 14.996 69.837504 14.996 75.837504 11 75.837504 C 7.004 75.837504 7.004 69.837504 11 69.837504 Z" stroke="#ffffff" stroke-width="1" class="highcharts-point highcharts-color-0"></path></g><g class="highcharts-series highcharts-series-1 highcharts-line-series highcharts-color-1 " transform="translate(128,58) scale(1 1)" width="120" height="462" clip-path="url(#highcharts-61)"><path fill="none" d="M 11.55 107.21984 L 34.65 98.438176 L 57.75 91.90576 L 80.85 89.884672 L 103.95 93.587568 L 127.05 83.736672 L 150.15 76.81592 L 173.25 70.856832 L 196.35 57.043600000000005 L 219.45 78.757104 L 242.55 46.46560000000001 L 265.65 75.947632 L 288.75 17.25382400000001 L 311.85 17.99020800000001 L 334.95 60.508384 L 358.05 57.158544000000006 L 381.15 26.86200000000001 L 404.25 24.783696000000006 L 427.35 19.425200000000004 L 450.45 17.54673600000001" class="highcharts-graph" stroke="#D32F2F" stroke-width="1" stroke-linejoin="round" stroke-linecap="round"></path></g><g class="highcharts-markers highcharts-series-1 highcharts-line-series highcharts-color-1 " transform="translate(128,58) scale(1 1)" width="120" height="462" clip-path="none"><path fill="#D32F2F" d="M 450 14.54673600000001 C 453.996 14.54673600000001 453.996 20.54673600000001 450 20.54673600000001 C 446.004 20.54673600000001 446.004 14.54673600000001 450 14.54673600000001 Z" stroke="#ffffff" stroke-width="1" class="highcharts-point highcharts-color-1"></path><path fill="#D32F2F" d="M 427 16.425200000000004 C 430.996 16.425200000000004 430.996 22.425200000000004 427 22.425200000000004 C 423.004 22.425200000000004 423.004 16.425200000000004 427 16.425200000000004 Z" stroke="#ffffff" stroke-width="1" class="highcharts-point highcharts-color-1"></path><path fill="#D32F2F" d="M 404 21.783696000000006 C 407.996 21.783696000000006 407.996 27.783696000000006 404 27.783696000000006 C 400.004 27.783696000000006 400.004 21.783696000000006 404 21.783696000000006 Z" stroke="#ffffff" stroke-width="1" class="highcharts-point highcharts-color-1"></path><path fill="#D32F2F" d="M 381 23.86200000000001 C 384.996 23.86200000000001 384.996 29.86200000000001 381 29.86200000000001 C 377.004 29.86200000000001 377.004 23.86200000000001 381 23.86200000000001 Z" stroke="#ffffff" stroke-width="1" class="highcharts-point highcharts-color-1"></path><path fill="#D32F2F" d="M 358 54.158544000000006 C 361.996 54.158544000000006 361.996 60.158544000000006 358 60.158544000000006 C 354.004 60.158544000000006 354.004 54.158544000000006 358 54.158544000000006 Z" stroke="#ffffff" stroke-width="1" class="highcharts-point highcharts-color-1"></path><path fill="#D32F2F" d="M 334 57.508384 C 337.996 57.508384 337.996 63.508384 334 63.508384 C 330.004 63.508384 330.004 57.508384 334 57.508384 Z" stroke="#ffffff" stroke-width="1" class="highcharts-point highcharts-color-1"></path><path fill="#D32F2F" d="M 311 14.99020800000001 C 314.996 14.99020800000001 314.996 20.99020800000001 311 20.99020800000001 C 307.004 20.99020800000001 307.004 14.99020800000001 311 14.99020800000001 Z" stroke="#ffffff" stroke-width="1" class="highcharts-point highcharts-color-1"></path><path fill="#D32F2F" d="M 288 14.253824000000009 C 291.996 14.253824000000009 291.996 20.25382400000001 288 20.25382400000001 C 284.004 20.25382400000001 284.004 14.253824000000009 288 14.253824000000009 Z" stroke="#ffffff" stroke-width="1" class="highcharts-point highcharts-color-1"></path><path fill="#D32F2F" d="M 265 72.947632 C 268.996 72.947632 268.996 78.947632 265 78.947632 C 261.004 78.947632 261.004 72.947632 265 72.947632 Z" stroke="#ffffff" stroke-width="1" class="highcharts-point highcharts-color-1"></path><path fill="#D32F2F" d="M 242 43.46560000000001 C 245.996 43.46560000000001 245.996 49.46560000000001 242 49.46560000000001 C 238.004 49.46560000000001 238.004 43.46560000000001 242 43.46560000000001 Z" stroke="#ffffff" stroke-width="1" class="highcharts-point highcharts-color-1"></path><path fill="#D32F2F" d="M 219 75.757104 C 222.996 75.757104 222.996 81.757104 219 81.757104 C 215.004 81.757104 215.004 75.757104 219 75.757104 Z" stroke="#ffffff" stroke-width="1" class="highcharts-point highcharts-color-1"></path><path fill="#D32F2F" d="M 196 54.043600000000005 C 199.996 54.043600000000005 199.996 60.043600000000005 196 60.043600000000005 C 192.004 60.043600000000005 192.004 54.043600000000005 196 54.043600000000005 Z" stroke="#ffffff" stroke-width="1" class="highcharts-point highcharts-color-1"></path><path fill="#D32F2F" d="M 173 67.856832 C 176.996 67.856832 176.996 73.856832 173 73.856832 C 169.004 73.856832 169.004 67.856832 173 67.856832 Z" stroke="#ffffff" stroke-width="1" class="highcharts-point highcharts-color-1"></path><path fill="#D32F2F" d="M 150 73.81592 C 153.996 73.81592 153.996 79.81592 150 79.81592 C 146.004 79.81592 146.004 73.81592 150 73.81592 Z" stroke="#ffffff" stroke-width="1" class="highcharts-point highcharts-color-1"></path><path fill="#D32F2F" d="M 127 80.736672 C 130.996 80.736672 130.996 86.736672 127 86.736672 C 123.004 86.736672 123.004 80.736672 127 80.736672 Z" stroke="#ffffff" stroke-width="1" class="highcharts-point highcharts-color-1"></path><path fill="#D32F2F" d="M 103 90.587568 C 106.996 90.587568 106.996 96.587568 103 96.587568 C 99.004 96.587568 99.004 90.587568 103 90.587568 Z" stroke="#ffffff" stroke-width="1" class="highcharts-point highcharts-color-1"></path><path fill="#D32F2F" d="M 80 86.884672 C 83.996 86.884672 83.996 92.884672 80 92.884672 C 76.004 92.884672 76.004 86.884672 80 86.884672 Z" stroke="#ffffff" stroke-width="1" class="highcharts-point highcharts-color-1"></path><path fill="#D32F2F" d="M 57 88.90576 C 60.996 88.90576 60.996 94.90576 57 94.90576 C 53.004 94.90576 53.004 88.90576 57 88.90576 Z" stroke="#ffffff" stroke-width="1" class="highcharts-point highcharts-color-1"></path><path fill="#D32F2F" d="M 34 95.438176 C 37.996 95.438176 37.996 101.438176 34 101.438176 C 30.004 101.438176 30.004 95.438176 34 95.438176 Z" stroke="#ffffff" stroke-width="1" class="highcharts-point highcharts-color-1"></path><path fill="#D32F2F" d="M 11 104.21984 C 14.996 104.21984 14.996 110.21984 11 110.21984 C 7.004 110.21984 7.004 104.21984 11 104.21984 Z" stroke="#ffffff" stroke-width="1" class="highcharts-point highcharts-color-1"></path></g></g><text x="280" text-anchor="middle" class="highcharts-title" style="color:#333333;font-size:18px;fill:#333333;width:536px;" y="24"><tspan>Production/Yield quantities of Cow peas, dry in World + (Total)</tspan></text><text x="280" text-anchor="middle" class="highcharts-subtitle" style="color:#666666;fill:#666666;width:536px;" y="43"><tspan>2000 - 2019</tspan></text><g class="highcharts-legend" transform="translate(185,231)"><rect fill="#FFFFFF" class="highcharts-legend-box" rx="0" ry="0" x="0" y="0" width="230" height="54" visibility="visible"></rect><g><g><g class="highcharts-legend-item highcharts-line-series highcharts-color-0 highcharts-series-0" transform="translate(8,3)"><path fill="none" d="M 0 11 L 16 11" class="highcharts-graph" stroke="#1976D2" stroke-width="1"></path><path fill="#1976D2" d="M 8 8 C 11.996 8 11.996 14 8 14 C 4.004 14 4.004 8 8 8 Z" class="highcharts-point" stroke="#ffffff" stroke-width="1"></path><text x="26" style="color:#707070;font-size:12px;font-weight:300;cursor:pointer;fill:#707070;" text-anchor="start" y="15"><tspan>World</tspan><tspan x="26" dy="15">Area harvested</tspan><tspan x="26" dy="15">Cow peas, dry</tspan></text></g><g class="highcharts-legend-item highcharts-line-series highcharts-color-1 highcharts-series-1" transform="translate(126.703125,3)"><path fill="none" d="M 0 11 L 16 11" class="highcharts-graph" stroke="#D32F2F" stroke-width="1"></path><path fill="#D32F2F" d="M 8 8 C 11.996 8 11.996 14 8 14 C 4.004 14 4.004 8 8 8 Z" class="highcharts-point" stroke="#ffffff" stroke-width="1"></path><text x="26" y="15" style="color:#707070;font-size:12px;font-weight:300;cursor:pointer;fill:#707070;" text-anchor="start"><tspan>World</tspan><tspan x="26" dy="15">Production</tspan><tspan x="26" dy="15">Cow peas, dry</tspan></text></g></g></g></g><g class="highcharts-axis-labels highcharts-xaxis-labels "><text x="142.37842712474617" style="color:#707070;cursor:default;font-size:11;font-weight:300;fill:#707070;width:300px;text-overflow:ellipsis;" text-anchor="end" transform="translate(0,0) rotate(-45 142.37842712474617 203)" y="203" opacity="1"><tspan>2000</tspan></text><text x="165.47842712474616" style="color:#707070;cursor:default;font-size:11;font-weight:300;fill:#707070;width:300px;text-overflow:ellipsis;" text-anchor="end" transform="translate(0,0) rotate(-45 165.47842712474616 203)" y="203" opacity="1"><tspan>2001</tspan></text><text x="188.57842712474618" style="color:#707070;cursor:default;font-size:11;font-weight:300;fill:#707070;width:300px;text-overflow:ellipsis;" text-anchor="end" transform="translate(0,0) rotate(-45 188.57842712474618 203)" y="203" opacity="1"><tspan>2002</tspan></text><text x="211.67842712474618" style="color:#707070;cursor:default;font-size:11;font-weight:300;fill:#707070;width:300px;text-overflow:ellipsis;" text-anchor="end" transform="translate(0,0) rotate(-45 211.67842712474618 203)" y="203" opacity="1"><tspan>2003</tspan></text><text x="234.77842712474617" style="color:#707070;cursor:default;font-size:11;font-weight:300;fill:#707070;width:300px;text-overflow:ellipsis;" text-anchor="end" transform="translate(0,0) rotate(-45 234.77842712474617 203)" y="203" opacity="1"><tspan>2004</tspan></text><text x="257.8784271247462" style="color:#707070;cursor:default;font-size:11;font-weight:300;fill:#707070;width:300px;text-overflow:ellipsis;" text-anchor="end" transform="translate(0,0) rotate(-45 257.8784271247462 203)" y="203" opacity="1"><tspan>2005</tspan></text><text x="280.97842712474625" style="color:#707070;cursor:default;font-size:11;font-weight:300;fill:#707070;width:300px;text-overflow:ellipsis;" text-anchor="end" transform="translate(0,0) rotate(-45 280.97842712474625 203)" y="203" opacity="1"><tspan>2006</tspan></text><text x="304.0784271247462" style="color:#707070;cursor:default;font-size:11;font-weight:300;fill:#707070;width:300px;text-overflow:ellipsis;" text-anchor="end" transform="translate(0,0) rotate(-45 304.0784271247462 203)" y="203" opacity="1"><tspan>2007</tspan></text><text x="327.17842712474624" style="color:#707070;cursor:default;font-size:11;font-weight:300;fill:#707070;width:300px;text-overflow:ellipsis;" text-anchor="end" transform="translate(0,0) rotate(-45 327.17842712474624 203)" y="203" opacity="1"><tspan>2008</tspan></text><text x="350.2784271247462" style="color:#707070;cursor:default;font-size:11;font-weight:300;fill:#707070;width:300px;text-overflow:ellipsis;" text-anchor="end" transform="translate(0,0) rotate(-45 350.2784271247462 203)" y="203" opacity="1"><tspan>2009</tspan></text><text x="373.3784271247462" style="color:#707070;cursor:default;font-size:11;font-weight:300;fill:#707070;width:300px;text-overflow:ellipsis;" text-anchor="end" transform="translate(0,0) rotate(-45 373.3784271247462 203)" y="203" opacity="1"><tspan>2010</tspan></text><text x="396.47842712474625" style="color:#707070;cursor:default;font-size:11;font-weight:300;fill:#707070;width:300px;text-overflow:ellipsis;" text-anchor="end" transform="translate(0,0) rotate(-45 396.47842712474625 203)" y="203" opacity="1"><tspan>2011</tspan></text><text x="419.5784271247462" style="color:#707070;cursor:default;font-size:11;font-weight:300;fill:#707070;width:300px;text-overflow:ellipsis;" text-anchor="end" transform="translate(0,0) rotate(-45 419.5784271247462 203)" y="203" opacity="1"><tspan>2012</tspan></text><text x="442.67842712474624" style="color:#707070;cursor:default;font-size:11;font-weight:300;fill:#707070;width:300px;text-overflow:ellipsis;" text-anchor="end" transform="translate(0,0) rotate(-45 442.67842712474624 203)" y="203" opacity="1"><tspan>2013</tspan></text><text x="465.77842712474626" style="color:#707070;cursor:default;font-size:11;font-weight:300;fill:#707070;width:300px;text-overflow:ellipsis;" text-anchor="end" transform="translate(0,0) rotate(-45 465.77842712474626 203)" y="203" opacity="1"><tspan>2014</tspan></text><text x="488.8784271247462" style="color:#707070;cursor:default;font-size:11;font-weight:300;fill:#707070;width:300px;text-overflow:ellipsis;" text-anchor="end" transform="translate(0,0) rotate(-45 488.8784271247462 203)" y="203" opacity="1"><tspan>2015</tspan></text><text x="511.97842712474625" style="color:#707070;cursor:default;font-size:11;font-weight:300;fill:#707070;width:300px;text-overflow:ellipsis;" text-anchor="end" transform="translate(0,0) rotate(-45 511.97842712474625 203)" y="203" opacity="1"><tspan>2016</tspan></text><text x="535.0784271247462" style="color:#707070;cursor:default;font-size:11;font-weight:300;fill:#707070;width:300px;text-overflow:ellipsis;" text-anchor="end" transform="translate(0,0) rotate(-45 535.0784271247462 203)" y="203" opacity="1"><tspan>2017</tspan></text><text x="558.1784271247463" style="color:#707070;cursor:default;font-size:11;font-weight:300;fill:#707070;width:300px;text-overflow:ellipsis;" text-anchor="end" transform="translate(0,0) rotate(-45 558.1784271247463 203)" y="203" opacity="1"><tspan>2018</tspan></text><text x="581.2784271247463" style="color:#707070;cursor:default;font-size:11;font-weight:300;fill:#707070;width:300px;text-overflow:ellipsis;" text-anchor="end" transform="translate(0,0) rotate(-45 581.2784271247463 203)" y="203" opacity="1"><tspan>2019</tspan></text></g><g class="highcharts-axis-labels highcharts-yaxis-labels "><text x="113" style="color:#666666;cursor:default;font-size:11px;fill:#666666;width:188px;text-overflow:clip;" text-anchor="end" transform="translate(0,0)" y="123" opacity="1"><tspan>10M</tspan></text><text x="113" style="color:#666666;cursor:default;font-size:11px;fill:#666666;width:188px;text-overflow:clip;" text-anchor="end" transform="translate(0,0)" y="63" opacity="1"><tspan>15M</tspan></text><text x="113" style="color:#666666;cursor:default;font-size:11px;fill:#666666;width:188px;text-overflow:clip;" text-anchor="end" transform="translate(0,0)" y="183" opacity="1"><tspan>5M</tspan></text></g><g class="highcharts-axis-labels highcharts-yaxis-labels "><text x="55.203125" style="color:#666666;cursor:default;font-size:11px;fill:#666666;width:188px;text-overflow:clip;" text-anchor="end" transform="translate(0,0)" y="183" opacity="1"><tspan>2.5M</tspan></text><text x="55.203125" style="color:#666666;cursor:default;font-size:11px;fill:#666666;width:188px;text-overflow:clip;" text-anchor="end" transform="translate(0,0)" y="143" opacity="1"><tspan>5M</tspan></text><text x="55.203125" style="color:#666666;cursor:default;font-size:11px;fill:#666666;width:188px;text-overflow:clip;" text-anchor="end" transform="translate(0,0)" y="103" opacity="1"><tspan>7.5M</tspan></text><text x="55.203125" style="color:#666666;cursor:default;font-size:11px;fill:#666666;width:188px;text-overflow:clip;" text-anchor="end" transform="translate(0,0)" y="63" opacity="1"><tspan>10M</tspan></text></g><g class="highcharts-label highcharts-tooltip" display="none" style="cursor:default;pointer-events:none;white-space:nowrap;" transform="translate(0,0)"><path fill="none" class="highcharts-label-box highcharts-tooltip-box" d="M 3.5 0.5 L 13.5 0.5 C 16.5 0.5 16.5 0.5 16.5 3.5 L 16.5 13.5 C 16.5 16.5 16.5 16.5 13.5 16.5 L 3.5 16.5 C 0.5 16.5 0.5 16.5 0.5 13.5 L 0.5 3.5 C 0.5 0.5 0.5 0.5 3.5 0.5"  stroke="#000000" stroke-opacity="0.049999999999999996" stroke-width="5" transform="translate(1, 1)"></path><path fill="none" class="highcharts-label-box highcharts-tooltip-box" d="M 3.5 0.5 L 13.5 0.5 C 16.5 0.5 16.5 0.5 16.5 3.5 L 16.5 13.5 C 16.5 16.5 16.5 16.5 13.5 16.5 L 3.5 16.5 C 0.5 16.5 0.5 16.5 0.5 13.5 L 0.5 3.5 C 0.5 0.5 0.5 0.5 3.5 0.5"  stroke="#000000" stroke-opacity="0.09999999999999999" stroke-width="3" transform="translate(1, 1)"></path><path fill="none" class="highcharts-label-box highcharts-tooltip-box" d="M 3.5 0.5 L 13.5 0.5 C 16.5 0.5 16.5 0.5 16.5 3.5 L 16.5 13.5 C 16.5 16.5 16.5 16.5 13.5 16.5 L 3.5 16.5 C 0.5 16.5 0.5 16.5 0.5 13.5 L 0.5 3.5 C 0.5 0.5 0.5 0.5 3.5 0.5"  stroke="#000000" stroke-opacity="0.15" stroke-width="1" transform="translate(1, 1)"></path><path fill="rgb(247,247,247)" fill-opacity="0.85" class="highcharts-label-box highcharts-tooltip-box" d="M 3.5 0.5 L 13.5 0.5 C 16.5 0.5 16.5 0.5 16.5 3.5 L 16.5 13.5 C 16.5 16.5 16.5 16.5 13.5 16.5 L 3.5 16.5 C 0.5 16.5 0.5 16.5 0.5 13.5 L 0.5 3.5 C 0.5 0.5 0.5 0.5 3.5 0.5"></path><text x="8" style="font-size:12px;color:#333333;fill:#333333;" y="20"></text></g><text x="590" class="highcharts-credits" text-anchor="end" style="cursor:pointer;color:#999999;font-size:7px;fill:#999999;" y="295"><tspan>Source: FAOSTAT (Aug 10, 2021)</tspan></text></svg>